# Blender v2.93.5 OBJ File: ''
# www.blender.org
mtllib spikeball.mtl
o Cube
v 1.029619 0.986573 -1.072664
v 1.029619 -1.072664 -1.072664
v 1.029619 0.986573 0.986573
v 1.029619 -1.072664 0.986573
v -1.029619 0.986573 -1.072664
v -1.029619 -1.072664 -1.072664
v -1.029619 0.986573 0.986573
v -1.029619 -1.072664 0.986573
v -0.572933 -0.572933 -0.296650
v -0.609568 -0.609568 -0.000000
v -0.572933 -0.572933 0.296650
v 0.296650 -0.572933 -0.572933
v 0.000000 -0.609568 -0.609568
v -0.296650 -0.572933 -0.572933
v 0.572933 0.296650 -0.572933
v 0.609568 0.000000 -0.609568
v 0.572933 -0.296650 -0.572933
v -0.572933 -0.296650 0.572933
v -0.609568 -0.000000 0.609568
v -0.572933 0.296650 0.572933
v 0.572933 0.296650 0.572933
v 0.609568 0.000000 0.609568
v 0.572933 -0.296650 0.572933
v -0.572933 0.296650 -0.572933
v -0.609568 -0.000000 -0.609568
v -0.572933 -0.296650 -0.572933
v 0.296650 0.572933 0.572933
v -0.296650 0.572933 0.572933
v 0.572933 0.572933 -0.296650
v 0.609568 0.609568 0.000000
v 0.572933 0.572933 0.296650
v -0.296650 -0.572933 0.572933
v -0.000000 -0.609568 0.609568
v 0.296650 -0.572933 0.572933
v -0.572933 0.572933 0.296650
v -0.609568 0.609568 -0.000000
v -0.572933 0.572933 -0.296650
v -0.296650 0.572933 -0.572933
v 0.000000 0.609568 -0.609568
v 0.296650 0.572933 -0.572933
v 0.572933 -0.572933 0.296650
v 0.609568 -0.609568 0.000000
v 0.572933 -0.572933 -0.296650
v 0.316157 0.728990 -0.316157
v 0.000000 0.781829 -0.333140
v -0.316157 0.728990 -0.316157
v 0.333140 0.781829 0.000000
v -0.000000 1.685697 -0.043045
v -0.333140 0.781829 -0.000000
v 0.316157 0.728990 0.316157
v -0.316157 0.728990 0.316157
v 0.316157 -0.316157 0.728990
v 0.333140 -0.000000 0.781829
v 0.316157 0.316157 0.728990
v -0.000000 -0.333140 0.781829
v 0.000000 -0.043045 1.685697
v 0.000000 0.333140 0.781829
v -0.316157 -0.316157 0.728990
v -0.333140 0.000000 0.781829
v -0.316157 0.316157 0.728990
v -0.728990 -0.316157 0.316157
v -0.781829 -0.000000 0.333140
v -0.728990 0.316157 0.316157
v -0.781829 -0.333140 -0.000000
v -1.728742 -0.043045 -0.043045
v -0.781829 0.333140 0.000000
v -0.728990 -0.316157 -0.316157
v -0.781829 0.000000 -0.333140
v -0.728990 0.316157 -0.316157
v -0.316157 -0.728990 -0.316157
v -0.000000 -0.781829 -0.333140
v 0.316157 -0.728990 -0.316157
v -0.333140 -0.781829 0.000000
v -0.000000 -1.771788 -0.043045
v 0.333140 -0.781829 -0.000000
v -0.316157 -0.728990 0.316157
v 0.000000 -0.781829 0.333140
v 0.316157 -0.728990 0.316157
v 0.728990 -0.316157 -0.316157
v 0.781829 -0.000000 -0.333140
v 0.728990 0.316157 -0.316157
v 0.781829 -0.333140 0.000000
v 1.728742 -0.043045 -0.043045
v 0.781829 0.333140 -0.000000
v 0.728990 -0.316157 0.316157
v 0.781829 0.000000 0.333140
v 0.728990 0.316157 0.316157
v -0.316157 -0.316157 -0.728990
v -0.333140 -0.000000 -0.781829
v -0.316157 0.316157 -0.728990
v 0.000000 -0.333140 -0.781829
v 0.000000 -0.043045 -1.771788
v -0.000000 0.333140 -0.781829
v 0.316157 -0.316157 -0.728990
v 0.333140 0.000000 -0.781829
v 0.316157 0.316157 -0.728990
v -0.000000 0.609568 0.609568
v -0.000000 0.781829 0.333140
vt 0.523739 0.408751
vt 0.655221 0.345206
vt 0.560089 0.436039
vt 0.227842 0.112361
vt 0.327611 0.000000
vt 0.266531 0.118021
vt 0.587323 0.466767
vt 0.513802 0.611969
vt 0.513802 0.765297
vt 0.474183 0.747401
vt 0.962232 0.485479
vt 0.882347 0.367471
vt 0.925352 0.362357
vt 0.767872 0.805179
vt 0.803580 0.850449
vt 0.766760 0.848435
vt 0.229857 0.154336
vt 0.266125 0.163021
vt 0.837709 0.764951
vt 0.886186 0.910551
vt 0.843178 0.904787
vt 0.773205 0.464270
vt 0.713157 0.455845
vt 0.744669 0.432824
vt 0.714119 0.515802
vt 0.681697 0.487744
vt 0.161287 0.791709
vt 0.230947 0.688618
vt 0.192580 0.807835
vt 0.427371 0.776582
vt 0.428796 0.740485
vt 0.655221 0.578013
vt 0.561321 0.498340
vt 0.533794 0.472220
vt 0.501661 0.443903
vt 0.186187 0.487984
vt 0.325474 0.461504
vt 0.218094 0.519440
vt 0.882348 0.587963
vt 0.917810 0.485479
vt 0.917810 0.597972
vt 0.327611 0.000000
vt 0.427380 0.112361
vt 0.388690 0.118021
vt 0.427371 0.570435
vt 0.372123 0.426726
vt 0.409632 0.433769
vt 0.310095 0.688618
vt 0.310095 0.842124
vt 0.273069 0.824734
vt 0.149113 0.465524
vt 0.207228 0.453263
vt 0.405136 0.755165
vt 0.348510 0.781907
vt 0.365682 0.740142
vt 0.033963 0.841053
vt 0.082538 0.978506
vt 0.039375 0.974183
vt 0.305584 0.999413
vt 0.293252 0.938079
vt 0.330877 0.964831
vt 0.208677 0.863413
vt 0.230947 0.827335
vt 0.965576 0.764951
vt 0.965576 0.908851
vt 0.928481 0.781067
vt 0.388995 0.388622
vt 0.425367 0.392106
vt 0.440803 0.074520
vt 0.468584 0.118260
vt 0.241130 0.550945
vt 0.288177 0.688618
vt 0.209677 0.579484
vt 0.185626 0.552392
vt 0.158124 0.520407
vt 0.505615 0.140892
vt 0.655221 0.119473
vt 0.536853 0.172052
vt 0.696335 0.850449
vt 0.696335 0.977503
vt 0.655221 0.863507
vt 0.558654 0.202799
vt 0.000000 0.119473
vt 0.149606 0.140892
vt 0.118369 0.172052
vt 0.224553 0.993271
vt 0.192988 0.867882
vt 0.224553 0.863413
vt 0.525833 0.105529
vt 0.427371 0.345206
vt 0.886186 0.790091
vt 0.772107 0.525687
vt 0.735936 0.552005
vt 0.634463 0.897082
vt 0.596261 0.941582
vt 0.593745 0.898256
vt 0.192988 0.863413
vt 0.192988 0.992714
vt 0.161287 0.866785
vt 0.177499 0.173430
vt 0.150607 0.205148
vt 0.127733 0.231518
vt 0.096568 0.202799
vt 0.615432 0.345206
vt 0.527489 0.231518
vt 0.504614 0.205148
vt 0.477722 0.173430
vt 0.494074 0.256706
vt 0.384793 0.345206
vt 0.466664 0.230641
vt 0.832935 0.145096
vt 0.981033 0.114627
vt 0.864866 0.176691
vt 0.441035 0.194798
vt 0.056383 0.688618
vt 0.121927 0.542220
vt 0.148252 0.578387
vt 0.856510 0.237004
vt 0.887897 0.208570
vt 0.804939 0.177446
vt 0.832469 0.209554
vt 0.994301 0.477718
vt 0.962232 0.348769
vt 0.994301 0.342353
vt 0.795820 0.122733
vt 0.853871 0.110717
vt 0.085531 0.555976
vt 0.106108 0.501820
vt 0.230947 0.815329
vt 0.925815 0.908851
vt 0.888635 0.952819
vt 0.886186 0.909498
vt 0.763521 0.850449
vt 0.763521 0.983627
vt 0.730325 0.854488
vt 0.755130 0.117722
vt 0.655221 0.000000
vt 0.769308 0.080966
vt 0.690921 0.139270
vt 0.717517 0.124850
vt 0.000000 0.345206
vt 0.108462 0.460211
vt 0.070897 0.466844
vt 0.426967 0.570435
vt 0.426967 0.728912
vt 0.386588 0.710531
vt 0.551685 0.611969
vt 0.596908 0.765198
vt 0.556833 0.760240
vt 0.752869 0.159127
vt 0.715445 0.785304
vt 0.655221 0.794207
vt 0.686651 0.759703
vt 0.593745 0.914598
vt 0.513802 0.787078
vt 0.553496 0.781305
vt 0.500951 0.505277
vt 0.469327 0.472455
vt 0.532911 0.530471
vt 0.000000 0.978506
vt 0.122753 0.423078
vt 0.506581 0.776582
vt 0.506581 0.925862
vt 0.470063 0.791854
vt 0.070862 0.511384
vt 0.812351 0.088838
vt 0.823717 0.262952
vt 0.712276 0.342353
vt 0.795111 0.235796
vt 0.214186 0.194798
vt 0.270428 0.345206
vt 0.188557 0.230641
vt 0.768755 0.199478
vt 0.803580 0.611446
vt 0.750665 0.767413
vt 0.722871 0.738424
vt 0.944022 0.342353
vt 0.161147 0.256706
vt 0.730325 0.850449
vt 0.730325 0.980816
vt 0.696335 0.977292
vt 0.251690 0.207617
vt 0.786087 0.762389
vt 0.593745 0.765198
vt 0.732325 0.213706
vt 0.763521 0.979398
vt 0.795590 0.850449
vt 0.795590 0.985814
vt 0.294631 0.130570
vt 0.214418 0.074520
vt 0.655222 0.342353
vt 0.882728 0.764951
vt 0.845703 0.628836
vt 0.882728 0.611446
vt 0.802322 0.803553
vt 0.882348 0.379666
vt 0.746107 0.488306
vt 0.962118 0.755346
vt 0.925023 0.739230
vt 0.962118 0.611446
vt 0.803580 0.910554
vt 0.844166 0.910551
vt 0.844166 0.953899
vt 0.426967 0.934067
vt 0.383805 0.929739
vt 0.384135 0.794584
vt 0.330877 0.842123
vt 0.345669 0.456429
vt 1.000000 0.755346
vt 0.962118 0.620311
vt 1.000000 0.601835
vt 0.165745 0.431302
vt 0.391932 0.794585
vt 0.344421 0.934067
vt 0.484451 0.083425
vt 0.080675 0.708816
vt 0.120749 0.703879
vt 0.161287 0.840407
vt 0.882348 0.611446
vt 0.798908 0.497085
vt 0.161287 0.688618
vt 0.388444 0.345240
vt 0.882728 0.730206
vt 0.634463 0.943998
vt 0.039789 0.345206
vt 0.176870 0.605182
vt 0.513802 0.765198
vt 0.427371 0.799575
vt 0.925815 0.955726
vt 0.427371 0.611969
vt 0.345669 0.706002
vt 0.049134 0.688618
vt 0.043117 0.836844
vt 0.000000 0.841053
vt 0.717586 0.169136
vt 0.688421 0.818738
vt 0.962232 0.342353
vt 0.343913 0.825864
vt 0.310095 0.821954
vt 0.343913 0.688618
vt 0.692881 0.722758
vt 0.803581 0.910551
vt 0.803580 0.638241
vt 0.080675 0.841053
vt 0.218094 0.519440
vt 0.209677 0.579484
vt 0.185626 0.552392
vt 0.148252 0.578387
vt 0.158124 0.520407
vt 0.925815 0.908851
vt 0.925815 0.955726
vt 0.888635 0.952819
vn 0.3544 0.8680 -0.3477
vn 0.0000 0.9992 -0.0400
vn 0.7881 0.6155 0.0019
vn -0.3544 0.8680 -0.3477
vn 0.0000 0.5969 -0.8023
vn 0.3355 0.8777 0.3421
vn -0.3355 0.8777 0.3421
vn 0.0000 0.6330 0.7741
vn 0.5764 0.5350 -0.6176
vn 0.6837 0.6874 0.2448
vn -0.2714 0.6843 -0.6767
vn 0.2714 0.6843 -0.6767
vn 0.0000 0.7071 -0.7071
vn -0.5764 0.5350 -0.6176
vn -0.6837 0.6874 0.2448
vn -0.7881 0.6155 0.0019
vn -0.6778 0.6819 -0.2748
vn -0.6058 0.5625 0.5625
vn 0.2465 0.6853 0.6853
vn -0.2465 0.6853 0.6853
vn 0.6058 0.5625 0.5625
vn 0.6778 0.6819 -0.2748
vn 0.7071 0.7071 0.0000
vn 0.3544 -0.3477 0.8680
vn 0.0000 -0.0400 0.9992
vn 0.0000 -0.8023 0.5969
vn 0.3355 0.3421 0.8777
vn 0.7881 0.0019 0.6155
vn -0.3544 -0.3477 0.8680
vn -0.3355 0.3421 0.8777
vn -0.7881 0.0019 0.6155
vn 0.5764 -0.6176 0.5350
vn -0.2714 -0.6767 0.6843
vn 0.6837 0.2448 0.6874
vn 0.6778 -0.2748 0.6819
vn 0.7071 0.0000 0.7071
vn 0.0000 0.7741 0.6330
vn -0.6778 -0.2748 0.6819
vn -0.7071 0.0000 0.7071
vn -0.6837 0.2448 0.6874
vn -0.5764 -0.6176 0.5350
vn 0.2714 -0.6767 0.6843
vn 0.0000 -0.7071 0.7071
vn -0.8755 -0.3347 0.3484
vn -0.9985 -0.0386 -0.0386
vn -0.5911 -0.8065 0.0018
vn -0.8851 0.3291 0.3291
vn -0.6262 0.0019 0.7796
vn -0.8656 -0.3540 -0.3540
vn -0.8755 0.3484 -0.3347
vn -0.5911 0.0018 -0.8065
vn -0.6766 -0.6728 -0.2992
vn -0.6262 0.7796 0.0019
vn -0.6766 -0.2992 -0.6728
vn -0.7071 0.0000 -0.7071
vn -0.6829 0.2688 -0.6793
vn -0.5506 -0.5902 -0.5902
vn -0.6829 -0.6793 0.2688
vn -0.7071 -0.7071 0.0000
vn -0.3478 -0.8734 -0.3408
vn 0.0000 -0.9993 -0.0374
vn -0.7976 -0.6031 0.0017
vn 0.3478 -0.8734 -0.3408
vn 0.0000 -0.5857 -0.8105
vn -0.3281 -0.8831 0.3352
vn 0.3281 -0.8831 0.3352
vn 0.0000 -0.6198 0.7848
vn 0.2950 -0.6756 -0.6756
vn -0.2950 -0.6756 -0.6756
vn 0.0000 -0.7071 -0.7071
vn 0.5506 -0.5902 -0.5902
vn 0.6829 -0.6793 0.2688
vn 0.7976 -0.6031 0.0017
vn 0.6766 -0.6728 -0.2992
vn 0.8656 -0.3540 -0.3540
vn 0.9985 -0.0386 -0.0386
vn 0.5911 -0.8065 0.0018
vn 0.8755 0.3484 -0.3347
vn 0.5911 0.0018 -0.8065
vn 0.8755 -0.3347 0.3484
vn 0.8851 0.3291 0.3291
vn 0.6262 0.0019 0.7796
vn 0.6829 0.2688 -0.6793
vn 0.6766 -0.2992 -0.6728
vn 0.7071 0.0000 -0.7071
vn 0.6262 0.7796 0.0019
vn 0.7071 -0.7071 0.0000
vn -0.3478 -0.3408 -0.8734
vn 0.0000 -0.0374 -0.9993
vn 0.0000 -0.8105 -0.5857
vn -0.3281 0.3352 -0.8831
vn -0.7976 0.0017 -0.6031
vn 0.3478 -0.3408 -0.8734
vn 0.3281 0.3352 -0.8831
vn 0.7976 0.0017 -0.6031
vn 0.0000 0.7848 -0.6198
vn -0.7071 0.7071 0.0000
vn 0.0000 0.7071 0.7071
usemtl Material
s 1
f 44/1/1 48/2/2 47/3/3
f 46/4/4 48/5/2 45/6/5
f 48/2/2 50/7/6 47/3/3
f 48/8/2 51/9/7 98/10/8
f 1/11/9 44/12/1 29/13/10
f 40/14/11 45/15/5 44/16/1
f 38/17/12 45/6/5 39/18/13
f 5/19/14 46/20/4 38/21/12
f 37/22/15 49/23/16 46/24/4
f 49/23/16 35/25/17 51/26/7
f 51/27/7 7/28/18 28/29/19
f 98/10/8 27/30/20 50/31/6
f 50/7/6 3/32/21 31/33/22
f 47/3/3 31/33/22 30/34/23
f 29/35/10 47/3/3 30/34/23
f 52/36/24 56/37/25 55/38/26
f 54/39/27 56/40/25 53/41/28
f 56/42/25 58/43/29 55/44/26
f 56/45/25 60/46/30 59/47/31
f 4/48/32 52/49/24 34/50/33
f 23/51/34 53/52/28 52/36/24
f 21/53/35 53/54/28 22/55/36
f 3/56/21 54/57/27 21/58/35
f 27/59/20 57/60/37 54/61/27
f 57/62/37 28/29/19 60/63/30
f 60/64/30 7/65/18 20/66/38
f 59/47/31 20/67/38 19/68/39
f 59/69/31 18/70/40 58/43/29
f 58/71/29 8/72/41 32/73/42
f 55/38/26 32/73/42 33/74/43
f 34/75/33 55/38/26 33/74/43
f 61/76/44 65/77/45 64/78/46
f 63/79/47 65/80/45 62/81/48
f 65/77/45 67/82/49 64/78/46
f 65/83/45 69/84/50 68/85/51
f 8/86/41 61/87/44 11/88/52
f 18/70/40 62/89/48 61/76/44
f 20/67/38 62/90/48 19/68/39
f 7/65/18 63/91/47 20/66/38
f 35/25/17 66/92/53 63/93/47
f 66/94/53 37/95/15 69/96/50
f 69/97/50 5/98/14 24/99/54
f 68/85/51 24/100/54 25/101/55
f 68/85/51 26/102/56 67/103/49
f 67/82/49 6/104/57 9/105/58
f 64/78/46 9/105/58 10/106/59
f 11/107/52 64/78/46 10/106/59
f 70/108/60 74/109/61 73/110/62
f 72/111/63 74/112/61 71/113/64
f 74/109/61 76/114/65 73/110/62
f 74/115/61 78/116/66 77/117/67
f 6/104/57 70/108/60 9/105/58
f 14/118/68 71/113/64 70/119/60
f 12/120/69 71/113/64 13/121/70
f 2/122/71 72/123/63 12/124/69
f 43/125/72 75/126/73 72/111/63
f 75/127/73 41/128/74 78/116/66
f 78/129/66 4/48/32 34/50/33
f 77/117/67 34/75/33 33/74/43
f 77/130/67 32/131/42 76/132/65
f 76/133/65 8/134/41 11/135/52
f 73/110/62 11/107/52 10/106/59
f 9/105/58 73/110/62 10/106/59
f 79/136/75 83/137/76 82/138/77
f 81/139/78 83/137/76 80/140/79
f 83/141/76 85/142/80 82/143/77
f 83/144/76 87/145/81 86/146/82
f 2/147/71 79/148/75 43/149/72
f 17/150/83 80/140/79 79/136/75
f 15/151/84 80/152/79 16/153/85
f 1/154/9 81/155/78 15/156/84
f 29/35/10 84/157/86 81/158/78
f 84/157/86 31/33/22 87/159/81
f 87/160/81 3/56/21 21/58/35
f 86/146/82 21/53/35 22/55/36
f 86/161/82 23/51/34 85/142/80
f 85/162/80 4/163/32 41/164/74
f 82/143/77 41/128/74 42/165/87
f 43/125/72 82/138/77 42/166/87
f 88/167/88 92/168/89 91/169/90
f 90/170/91 92/171/89 89/172/92
f 92/168/89 94/173/93 91/169/90
f 92/174/89 96/175/94 95/176/95
f 6/177/57 88/167/88 14/118/68
f 26/102/56 89/172/92 88/178/88
f 24/100/54 89/172/92 25/101/55
f 5/179/14 90/180/91 24/181/54
f 38/17/12 93/182/96 90/170/91
f 93/183/96 40/14/11 96/175/94
f 96/184/94 1/154/9 15/156/84
f 95/176/95 15/151/84 16/153/85
f 95/185/95 17/150/83 94/173/93
f 94/186/93 2/187/71 12/188/69
f 91/169/90 12/120/69 13/121/70
f 14/118/68 91/169/90 13/121/70
f 44/189/1 45/6/5 48/5/2
f 46/4/4 49/190/16 48/5/2
f 48/8/2 98/10/8 50/31/6
f 48/191/2 49/23/16 51/26/7
f 1/192/9 40/193/11 44/194/1
f 40/14/11 39/195/13 45/15/5
f 38/17/12 46/4/4 45/6/5
f 5/196/14 37/22/15 46/24/4
f 37/22/15 36/197/97 49/23/16
f 49/23/16 36/197/97 35/25/17
f 51/198/7 35/199/17 7/200/18
f 98/201/8 51/202/7 28/203/19
f 50/204/6 27/205/20 3/206/21
f 47/3/3 50/7/6 31/33/22
f 29/35/10 44/1/1 47/3/3
f 52/36/24 53/52/28 56/37/25
f 54/61/27 57/60/37 56/207/25
f 56/42/25 59/69/31 58/43/29
f 56/45/25 57/208/37 60/46/30
f 4/209/32 23/210/34 52/211/24
f 23/51/34 22/212/36 53/52/28
f 21/53/35 54/213/27 53/54/28
f 3/206/21 27/205/20 54/214/27
f 60/63/30 28/29/19 7/28/18
f 59/47/31 60/46/30 20/67/38
f 59/69/31 19/215/39 18/70/40
f 58/216/29 18/217/40 8/218/41
f 55/38/26 58/71/29 32/73/42
f 34/75/33 52/36/24 55/38/26
f 61/76/44 62/89/48 65/77/45
f 63/93/47 66/92/53 65/219/45
f 65/83/45 68/85/51 67/103/49
f 65/219/45 66/92/53 69/220/50
f 8/218/41 18/217/40 61/221/44
f 18/70/40 19/215/39 62/89/48
f 20/67/38 63/222/47 62/90/48
f 7/200/18 35/199/17 63/223/47
f 35/25/17 36/197/97 66/92/53
f 66/94/53 36/224/97 37/95/15
f 69/220/50 37/22/15 5/196/14
f 68/85/51 69/84/50 24/100/54
f 68/85/51 25/101/55 26/102/56
f 67/103/49 26/102/56 6/225/57
f 64/78/46 67/82/49 9/105/58
f 11/107/52 61/76/44 64/78/46
f 70/119/60 71/113/64 74/112/61
f 72/111/63 75/126/73 74/112/61
f 74/115/61 77/117/67 76/226/65
f 74/115/61 75/127/73 78/116/66
f 6/177/57 14/118/68 70/119/60
f 14/118/68 13/121/70 71/113/64
f 12/120/69 72/111/63 71/113/64
f 2/147/71 43/149/72 72/227/63
f 43/125/72 42/166/87 75/126/73
f 75/127/73 42/165/87 41/128/74
f 78/228/66 41/164/74 4/163/32
f 77/117/67 78/116/66 34/75/33
f 77/130/67 33/229/43 32/131/42
f 76/226/65 32/73/42 8/72/41
f 73/110/62 76/114/65 11/107/52
f 9/105/58 70/108/60 73/110/62
f 79/136/75 80/140/79 83/137/76
f 81/158/78 84/157/86 83/230/76
f 83/144/76 86/146/82 85/231/80
f 83/230/76 84/157/86 87/159/81
f 2/232/71 17/233/83 79/234/75
f 17/150/83 16/235/85 80/140/79
f 15/151/84 81/236/78 80/152/79
f 1/11/9 29/13/10 81/237/78
f 29/35/10 30/34/23 84/157/86
f 84/157/86 30/34/23 31/33/22
f 87/159/81 31/33/22 3/32/21
f 86/146/82 87/145/81 21/53/35
f 86/161/82 22/212/36 23/51/34
f 85/238/80 23/239/34 4/240/32
f 82/143/77 85/142/80 41/128/74
f 43/125/72 79/136/75 82/138/77
f 88/178/88 89/172/92 92/171/89
f 90/170/91 93/182/96 92/171/89
f 92/174/89 95/176/95 94/241/93
f 92/174/89 93/183/96 96/175/94
f 6/225/57 26/102/56 88/178/88
f 26/102/56 25/101/55 89/172/92
f 24/100/54 90/170/91 89/172/92
f 5/19/14 38/21/12 90/242/91
f 38/17/12 39/18/13 93/182/96
f 93/183/96 39/195/13 40/14/11
f 96/243/94 40/193/11 1/192/9
f 95/176/95 96/175/94 15/151/84
f 95/185/95 16/235/85 17/150/83
f 94/244/93 17/233/83 2/232/71
f 91/169/90 94/173/93 12/120/69
f 14/118/68 88/167/88 91/169/90
f 98/245/8 28/246/19 97/247/98
f 57/248/37 27/249/20 97/247/98
f 57/250/37 97/251/98 28/252/19
f 27/249/20 98/245/8 97/247/98
